<svg version="1.1" xmlns="http://www.w3.org/2000/svg" viewBox="0 0 952.1 491.6"><g fill-opacity="1" fill-rule="nonzero" stroke="none"><path d="M4555.3 1950.4 3212.7 3673.6l6.5 13.1L4974.6 3476l-419.3-1525.5" fill="#d51452" transform="matrix(1.33333 0 0 -1.33333 0 491.6) scale(.1)"/><path d="m4625.3 1937 422.6 1534.9 1281-1788.2-6.7-13.6L4625.3 1937" fill="#e20b6d" transform="matrix(1.33333 0 0 -1.33333 0 491.6) scale(.1)"/><path d="M4629.2 1862.5 6253 1602.8l3-16.2L4853 883.3l-223.8 979.2" fill="#d51452" transform="matrix(1.33333 0 0 -1.33333 0 491.6) scale(.1)"/><path d="m4021.9 6.2 527.5 1860c9.6-21.8 16-31.6 18.4-42.4C4651.4 1448 4734 1072 4818.5 696.6c8.4-37.4.4-59.5-29.9-84-240.9-194.4-480.2-390.9-720-586.6-11.3-9.2-23.5-17.4-35.2-26l-11.5 6.2" fill="#9d1738" transform="matrix(1.33333 0 0 -1.33333 0 491.6) scale(.1)"/><path d="M5893.7 2397 6736 2549l-321-876-521.3 723.9" fill="#d51452" transform="matrix(1.33333 0 0 -1.33333 0 491.6) scale(.1)"/><path d="m5076.7 920 1258 641.4 10-8.5c-15.7-48-30.3-96.5-48.2-143.6-3.9-10.2-18.5-18.7-30-23.3-391.2-158-782.6-315.3-1174-472.7-3-1.2-6.5-1.2-9.8-1.7l-6 8.4M7135.3 2182.4h-467l125.2 341 347-326-5.2-15" fill="#e20b6d" transform="matrix(1.33333 0 0 -1.33333 0 491.6) scale(.1)"/><path d="m3875.2 2694.2-715.4 677.2 5.2 13.3c60.4 0 120.8.9 181-1 9.3-.2 20.3-11.1 27-19.8 168-215 335.7-430.5 503.2-646 3.7-4.7 5.1-11.1 7.7-16.8l-8.7-7" fill="#9d1738" transform="matrix(1.33333 0 0 -1.33333 0 491.6) scale(.1)"/><path d="M145.2 1637.8a263 263 0 0 1 6.4-51.1c27.1-97.3 108.5-164.3 210.6-164.3 146.8 0 234.6 119.6 234.6 296.7 0 154.8-79.8 287.2-229.8 287.2-95.7 0-185.1-65.4-213.8-172.3-3.2-16-8-35-8-57.4zM0 1328.2c3.2 52.7 6.4 130.8 6.4 199.5V2461h138.8v-485h3.2c49.5 86 138.8 142 263.3 142 191.4 0 327-159.6 325.5-394.2 0-276-174-413.2-346.3-413.2-111.7 0-201 43-258.5 145.2h-4.8l-6.3-127.7H0" fill="#ec008c" transform="matrix(1.33333 0 0 -1.33333 0 491.6) scale(.1)"/><path d="M919 2403.7h138.8V1885h4.8c28.8 41.5 57.5 79.8 84.6 114.9l328.7 403.7h172.3L1259 1947.3l419.6-619h-164.3l-354.2 528-102.2-118v-410H919v1075.4M2211.4 1722.3c-153.2 3.2-327-24-327-173.9 0-91 60.6-134 132.4-134 100.5 0 164.3 63.8 186.6 129.2 4.8 14.4 8 30.3 8 44.7zm20.8-394-11.2 97.2h-4.8c-43-60.6-126-114.8-236.2-114.8-156.3 0-236 110-236 221.7 0 186.7 165.8 288.8 464.2 287.2v16c0 63.8-17.5 178.7-175.5 178.7-71.8 0-146.8-22.3-201-57.4l-32 92.5c63.9 41.5 156.4 68.6 253.7 68.6 236.2 0 293.6-161.1 293.6-315.9v-288.8c0-67 3.2-132.4 12.8-185h-127.6M2554.4 1471.8c41.5-27.1 115-55.8 185.1-55.8 102.2 0 150 51 150 114.9 0 67-39.9 103.7-143.6 142-138.8 49.4-204.2 126-204.2 218.6 0 124.4 100.5 226.5 266.4 226.5 78.2 0 146.8-22.3 190-47.8l-35.2-102.1a300.6 300.6 0 0 1-158 44.6c-83 0-129.2-47.8-129.2-105.3 0-63.8 46.3-92.5 146.8-130.8 134-51 202.7-118.1 202.7-233 0-135.6-105.4-231.3-288.9-231.3-84.5 0-162.7 20.7-217 52.6l35.1 107M3205.4 2461h140.4v-481.8h3.2c22.4 40 57.5 75 100.6 99 41.4 23.9 91 39.8 143.6 39.8 103.7 0 269.6-63.8 269.6-330.3v-459.5h-140.4v443.6c0 124.4-46.3 229.8-178.7 229.8-91 0-162.8-63.9-188.3-140.5-8-19.1-9.6-39.8-9.6-67v-465.9h-140.4v1132.9" fill="#231f20" transform="matrix(1.33333 0 0 -1.33333 0 491.6) scale(.1)"/></g></svg>