<svg class="img-fluid" xmlns="http://www.w3.org/2000/svg" width="250" height="250" viewBox="0 0 2500 2500"><g fill="rgb(255,127,39)"><g><path d="M370 1265 l0 -735 320 0 c349 0 428 8 522 56 67 34 123 95 150 162 18 46 22 76 22 157 0 121 -17 168 -95 250 -29 30 -50 57 -48 58 2 2 24 15 49 30 125 72 178 185 167 357 -6 112 -35 185 -98 254 -92 101 -177 134 -371 143 l-128 6 0 -200 0 -201 85 -3 c46 -2 88 -8 93 -14 21 -22 22 -52 4 -75 -16 -20 -30 -24 -100 -28 l-82 -5 0 -203 0 -204 25 0 c14 0 41 -7 60 -14 29 -12 35 -20 35 -44 0 -48 -56 -78 -122 -65 l-28 5 0 524 0 524 -230 0 -230 0 0 -735z"></path></g></g><g fill="rgb(255,63,63)"><g><path d="M1623 1959 c-58 -17 -58 -19 -58 -427 l0 -374 28 -24 c31 -26 54 -30 90 -13 45 20 47 41 47 389 l0 330 191 0 c195 0 220 4 239 41 16 30 2 59 -36 75 -39 16 -446 19 -501 3z"></path><path d="M1657 1023 c-2 -5 -5 -92 -6 -194 -2 -170 -1 -190 17 -225 25 -48 48 -68 98 -85 47 -15 68 -14 130 6 24 7 59 51 74 90 5 14 15 27 22 29 74 21 100 32 115 50 45 52 55 123 27 179 -40 79 -67 91 -308 132 -168 28 -163 28 -169 18z m242 -139 c128 -23 172 -64 119 -114 -16 -15 -35 -20 -74 -20 l-53 0 -15 -55 c-20 -67 -48 -91 -81 -69 -44 28 -53 84 -39 222 6 56 9 61 28 57 12 -2 63 -12 115 -21z"></path></g></g></svg>