<svg xmlns="http://www.w3.org/2000/svg" version="1.1" id="prefix__Layer_1" x="0" y="0" viewBox="0 0 300 131" xml:space="preserve"><style type="text/css" id="style1431">.prefix__st0{fill:#ed1c24}.prefix__st1{fill:#f7941d}</style><g id="prefix__g1438" transform="translate(-1266.2 -110.3) scale(2.59472)"><g transform="translate(482 41.4)" id="prefix__g1406"><g id="prefix__g1390"><path class="prefix__st0" d="M80.6 20.7H60.4c-.4 0-.6.3-.6.6v1.6c0 .4.3.6.6.6h15.1v8.4l-1.4-1.8a8 8 0 0 0-5.7-2.7c-1.6 0-2.9.8-4 2.2a6.7 6.7 0 0 0-1.4 3.9c0 1.3.2 3 1.2 4.6 1.2 1.9 3.2 2.5 5 2.5 2.3 0 4.2-1.6 4.2-3.7 0-1.2-.6-2.2-1.7-2.9l-1.1-.6v1.8c-.1.5-.9 1.2-1.8 1.2-.8 0-1.5-.3-2-.8-.3-.3-.5-.9-.4-1.3 0-.6.2-1.1.6-1.6.5-.6 1-.9 1.8-.9 2 0 3.7.9 5.1 2.9a9.2 9.2 0 0 1 1.7 5.1V44l3 1.8.3.1c.4 0 .6-.3.6-.6V23.6h1.2c.4 0 .6-.3.6-.6v-1.6c0-.4-.3-.7-.7-.7Z" id="prefix__path1386" fill="#ed1c24"/><path class="prefix__st0" d="M121 20.7H95.4c-.4 0-.6.3-.6.6v2.8c-2.5-2.6-4.7-3.9-6.7-3.9-1.9 0-3.5.4-4.9 1.5-1.3 1-2.1 2.3-2.1 3.8 0 4.5 5 4.4 6.3 3.8.2-.1.5-.3.8-.3 1 0 1.4.8 1.4 1.5 0 1-1.5 1.9-3.3 1.9-1 0-1.6-.3-2-.9l-.8-1.2-.5 1.4c-.1.3-.3.7-.3 1.2 0 1 .5 2 1.5 2.9.9.8 2 1.2 3.2 1.2 1.9 0 3.5-.7 4.5-2.1a6 6 0 0 0 1.3-3.9c0-.8-.3-1.7-1-2.7-.8-1.2-1.8-1.8-2.9-1.8a4 4 0 0 0-1.4.3l-.7.2a.9.9 0 0 1-.7-.4c-.2-.2-.4-.5-.4-1 0-1.1 1-2.2 2.8-2.2h.1c1.2 0 2.4.6 3.5 1.7.9.9 1.6 1.8 2.2 2.8v15.9l3 1.8.3.1c.4 0 .6-.3.6-.6V23.6h4.6v13.9l3.6 1.5h.2c.3 0 .6-.2.6-.6v-.1c.6-4.1 2.4-6.9 5.4-8.6v.8a30.1 30.1 0 0 0 .2 4c0 1.6.2 4 .7 5.8 1 3.4 2.7 4.2 3.9 4.2h.1c.7 0 1.3-.2 1.7-.6.2-.2.5-.6.5-1.3 0-.6-.1-1.1-.3-1.5l-.3-.5-.6.1c-.6.2-.9.2-.9.1h-.1l-.3-.1c-.2-.1-.6-.4-.9-1.5a12 12 0 0 1-.3-2.5c0-4.5.9-7.9 2.4-8.6h.1c.2-.1.4-.3.4-.6l-.1-.3v-.1c-.7-1.4-2.2-2.4-4.2-2.9h-.4c-1.6.3-3.5 1.4-5.9 3.4l-1.7 1.5v-5.5h14c.4 0 .6-.3.6-.6v-1.6c.1-.4-.2-.7-.6-.7z" id="prefix__path1388" fill="#ed1c24"/></g><path class="prefix__st0" d="m53.2 28.1-.1 1.9a22.4 22.4 0 0 1-3.5 10.6A23.7 23.7 0 0 1 6 28.1C6 18.8 11.4 10.8 19.1 7l-1.7 2.5-.1.2-.9.8-1.1 1-.2.2-.2.2-.4.4-.7.9c-1 1.3-1.8 2.7-2.4 4.2l-.2.4-.2.5-.1.3-.3.8-.2.5-.1.3-.1.6-.3 1.8-.1.5v2.4a20.7 20.7 0 0 0 20.6 20.6 20.6 20.6 0 0 0 18-10.7l.6-1.1c1.2-2.5 1.9-5.2 1.9-8.1v-.7l-.1-2 .1.1.9.8.9-1.4.4 2.8.1 2.3z" id="prefix__path1392" fill="#ed1c24"/><path class="prefix__st1" d="M32.4 9.2 28 1.1a20.9 20.9 0 0 0-8.8 30.7c-.2-1.1-.2-2.2-.2-3.4A21 21 0 0 1 32.4 9.2Z" id="prefix__path1394" fill="#f7941d"/><path class="prefix__st0" d="M35.9 13.2a21.7 21.7 0 0 1 9.3-.4l-.1-3.6-.2-7.2-2.6-.2c-4 0-7.7 1.3-10.7 3.4L34 9.6a18.4 18.4 0 0 0-12.2 14.8 21.6 21.6 0 0 1 14.1-11.2z" id="prefix__path1396" fill="#ed1c24"/><path class="prefix__st1" d="m46.4 9.1.2 5.1a18.4 18.4 0 0 0-22.8 11.7A18.4 18.4 0 0 1 51.6 23l2.8-4.2 3.6-5.5a18.3 18.3 0 0 0-11.6-4.2Z" id="prefix__path1398" fill="#f7941d"/><path class="prefix__st1" d="M50.9 25.7v.7c0 4.2-1.7 7.7-1.9 8.1l-.6 1.1a20.6 20.6 0 0 1-18 10.7A20.6 20.6 0 0 1 9.8 25.7v-2.4l.1-.5.3-1.8.1-.6.1-.3.2-.5.3-.8.1-.3.2-.5.2-.4c.6-1.5 1.5-2.9 2.4-4.2l.7-.9.4-.4.2-.2.2-.2 1.1-1 .9-.8-.1.2-.1.2c-1.2 2.4-2 5.3-2.3 8.3l-.1 2.5c0 10.8 6.3 19.5 14.1 19.5H29.6a12.4 12.4 0 0 0 12.5-12.4v-.3a12 12 0 0 0-3.8-8.6 20.5 20.5 0 0 1 12.5 4.6l.1.1v1.7z" id="prefix__path1400" fill="#f7941d"/><g id="prefix__g1404"><path class="prefix__st1" d="M50.9 25.7v.7c0 4.4-2 8.2-2 8.2l-.6 1.1a21 21 0 0 1-31.3 6 20.6 20.6 0 0 1 0-32l.2-.2-.1.2-.1.2a20.5 20.5 0 1 0 31.1 25.6l.5-1.1s2-3.7 2-8.1v-.7l-.1-2v-.1l.1.1.1.1c.2.8.2 1.4.2 2z" id="prefix__path1402" fill="#f7941d"/></g></g></g></svg>