<svg version="1.1" xmlns="http://www.w3.org/2000/svg" viewBox="0 0 504 337.4"><g fill-opacity="1" stroke="none"><path d="M0 0h3780v2530.5H0Z" fill="#872394" fill-rule="evenodd" transform="matrix(1.33333 0 0 -1.33333 0 337.4) scale(.1)"/><path d="m2634 2119.4-449-448.9 31.6-252 82.7 173.3 256-326.8 358.2 1102.5-1193-496.2 322.8-169.3 590.7 417.4" fill="#fff" fill-rule="evenodd" transform="matrix(1.33333 0 0 -1.33333 0 337.4) scale(.1)"/><path d="M2071 859.4h-263.8c-163.4-9.8-216.6 259.9-15.8 295.3H2071zm173.1 472.5h-472.5c-360.3-55.1-397.7-578.8-4-649.7h476.6v472.5c158.8-5.3 191.6-203.4 74.8-275.6 23.6-27.6 118-130 118-130 248.2 214 106.4 565.7-192.8 582.8" fill="#fff" fill-rule="nonzero" transform="matrix(1.33333 0 0 -1.33333 0 337.4) scale(.1)"/><path d="M3232.5 1095.6h-173.3l-74.8-173.2h220.5c44.3 2 46.3-63 0-67h-382v299.3h586.7v177.2H3323c-25.6 366.2-463.6 377-578.8 177.2 22.7-18.7 130-114.2 130-114.2 65.9 103.4 249 98.4 275.6-63h-500V682.2h563c128 2 187 96.5 200.8 177.2 7.9 130-70.9 216.5-181.1 236.2M1547.2 1331.9h-228.4c-72.8-88.6-198.8-447 51.2-716.6 0 0 108.3 92.5 130 110.2-76.8 74.8-204.8 380 47.2 606.4M965.9 609a143.1 143.1 0 1 0-286.3 0 143.1 143.1 0 0 0 286.3 0" fill="#fff" fill-rule="evenodd" transform="matrix(1.33333 0 0 -1.33333 0 337.4) scale(.1)"/><path d="M960.5 859.4H696.7c-163.4-9.8-216.6 259.9-15.8 295.3h279.6zm-299.3 472.5C301 1276.8 263.6 753 657.4 682.2h2.6a178.5 178.5 0 0 0 325.6 0h148.2v649.7H661.3M823.1 1565.5a15 15 0 0 0-14.9-15H733v31.5h75.3a15 15 0 0 0 15-14.9zm7.5-80c58 9.8 86.6 129-8 155.5H669.2v-226.4h63v70.9l70.9-71h98.5l-70.9 71" fill="#fff" fill-rule="evenodd" transform="matrix(1.33333 0 0 -1.33333 0 337.4) scale(.1)"/><path d="M1011.1 1479.4a50.4 50.4 0 1 0 0 100.8 50.4 50.4 0 0 0 0-100.8zm0 165.2a114.7 114.7 0 1 1 0-229.5 114.7 114.7 0 0 1 0 229.5M1662 1579.4h103.1v66.5H1678c-68.6 0-124.8-51.8-124.8-115 0-63.4 56.2-115.1 124.8-115.1h87.2v66.5h-103a47.2 47.2 0 0 0-37.4 18.3h140.4v60.4h-140.4a47.2 47.2 0 0 0 37.3 18.4M1252.1 1482.3c-26 0-47.2 21.2-47.2 47.2v2.6c0 26 21.2 47.3 47.2 47.3h98v66.5h-87.9c-68.6 0-124.7-51.8-124.7-115 0-63.4 56.1-115.1 124.7-115.1h88v66.5h-98M2004.6 1641.5h-222.2V1582h81.3v-162.8h59.5V1582h81.4v59.5" fill="#fff" fill-rule="evenodd" transform="matrix(1.33333 0 0 -1.33333 0 337.4) scale(.1)"/><path d="m1475.7 1531.2 109.4 110.3h-88.6l-61.5-62v62h-59.5v-222.3h59.5v63.8l63.2-63.7h88.5l-111 112M2370.5 572c-9.8-2-18.4-8.1-25.9-18.5a50.7 50.7 0 0 1-10.7-30c0-6.1 1.2-12 3.7-17.8 3.2-7.3 7.6-10.9 13-10.9 2.8 0 6.4 1.5 10.8 4.5l6.2-16.5c-5.6-3.4-11-5-16.3-5-7.2 0-14 2.6-20.7 8-3.8 3-7.5 9-10.9 17.6a54.2 54.2 0 0 0-2.6 19.3v6c0 13.5 7.2 28.7 21.5 45.5 3 3.5 8.1 8.4 15.3 14.8h22.4v-16.4l-5.8-.6" fill="#fff" fill-rule="nonzero" transform="matrix(1.33333 0 0 -1.33333 0 337.4) scale(.1)"/><path d="M2451.3 572.6h-44c12.4-8 19-18.6 19.5-31.6 7.9-3.1 16-9.3 24.5-18.6zm18.7 0V479h-18.7v12c0 4.2-3.1 9.5-9.5 16-4.7 5-9.7 9.2-15 12.9-5.8 4-12.2 6-19 6-7 0-12-3-15.3-9-.3-.7-.5-1.5-.5-2.6 0-2.4 1.2-4.7 3.6-6.7 2.5-2 5-3 7.4-3 2 0 6.8 1.4 14.3 4.3l5.5-17a48.5 48.5 0 0 0-20.9-6.4c-6.2 0-11.9 1.8-17 5.3-5.2 3.5-9 8-11.4 13.7-1 2.5-1.6 5.5-1.6 9.1a27 27 0 0 0 13.2 24.3 35 35 0 0 0 19.5 6h1.8c-.1 3.3-1.9 7-5.2 11-3.3 4-6.6 6.1-9.7 6.1h-20.7v11.5h-8.4V589h120.4v-16.4H2470" fill="#fff" fill-rule="nonzero" transform="matrix(1.33333 0 0 -1.33333 0 337.4) scale(.1)"/><path d="M2506.4 572.6V479h-18.7v93.5H2474V589h45v-16.4h-12.6" fill="#fff" fill-rule="nonzero" transform="matrix(1.33333 0 0 -1.33333 0 337.4) scale(.1)"/><path d="m2597.7 552.4-11.2-4.1-32-14-3.6-1.6a156.7 156.7 0 0 0 42.4-22.9l4.4-3.3zm-1 20.2h-84.3V589H2629v-16.4h-13V479h-16.5c-1.6 4.8-9.7 12.2-24.2 22.3-6 4.1-14.3 8.1-24.7 12a82 82 0 0 1-26.7 6.2l-5 18.6c4.4 3.5 16.4 9.5 36.2 18 8.3 3.7 22.2 9.1 41.5 16.4" fill="#fff" fill-rule="nonzero" transform="matrix(1.33333 0 0 -1.33333 0 337.4) scale(.1)"/><path d="M2652.5 572.6V479h-18.7v93.5H2620V589h45v-16.4h-12.5" fill="#fff" fill-rule="nonzero" transform="matrix(1.33333 0 0 -1.33333 0 337.4) scale(.1)"/><path d="M2723.4 463.3a236.2 236.2 0 0 1-24.3 19.2c-4 2.9-10.9 6-20.4 9.5-7.6 2.7-12 4-13.3 4l.2 22 7.2-.3 7.3-.3c8.4 0 15.3 1 20.6 3.2 10 4.3 15.1 9.2 15.1 15 0 4.2-1.9 7.7-5.7 10.5a319 319 0 0 1-11.4 6.4c-1 .5-2 .7-3.1.7-2.3 0-4.7-.6-7.4-1.7-3.3-1.5-4.8-3.3-4.6-5.2.7-4.8 5.8-6.9 15.3-6.1l-10-15.5a20 20 0 0 0-12.6 3.9c-7.7 5.1-11.5 11.5-11.5 19s3.9 13.3 11.7 17.5a44.8 44.8 0 0 0 21.9 5.2c3.5 0 6.6-.6 9.2-1.8 2.6-1.1 5.2-2.4 7.8-3.8 12.8-6.5 19.1-16.3 19.1-29.5 0-9.4-3.9-17-11.7-22.8-6-4.4-14.5-7.6-25.6-9.5 3.3-1.6 8-4.3 14.3-8 10.6-8 19.1-15.2 25.6-21.5zm-65 109.3V589h55.2c.2.6.2 1 .2 1.4 0 8.5-4 14.2-12 16.9-1.1.3-2.3.4-3.7.4-2 0-4.4-.4-7.3-1.2l-7.2-1.8a23 23 0 0 1-8.3-3c-3-2-6.6-4-10.5-5.6l-6 13.8c7.2 5 16.6 9.2 28.2 12.7 5 1.4 9.5 2.1 14 2.1 4.6 0 9.8-1.6 15.6-5 10-6 15.1-16.2 15.5-30.7h10.8v-16.4h-84.5" fill="#fff" fill-rule="nonzero" transform="matrix(1.33333 0 0 -1.33333 0 337.4) scale(.1)"/><path d="M2854.7 572.6V479H2836v37a16 16 0 0 1-4.1 10c-2.8 3.4-5.8 5.1-9 5.1-2.9 0-5.6-1.8-8.3-5.3-2.6-3.7-4-7.8-4-12.4h-20.2c0 5.2-1.3 9.7-4 13.4-2.6 3.8-5.7 5.7-9.2 5.7-2.9 0-5.7-1-8.4-3.2-2.6-2-4-4.4-4.4-7.2l-.5-4.8v-2c0-9.5 5.8-14.3 17.6-14.3 1.8 0 5 .3 9.5 1.1l-6.5-18.9-7-.6c-8.8 0-16.8 3.2-24.3 9.7a37.3 37.3 0 0 0-9.7 24.5c0 10.1 3.1 18.3 9.4 24.6a33 33 0 0 0 24.4 9.4c9.5 0 17.4-4.5 23.7-13.4 7 9 14.3 13.4 22.3 13.4 4.4 0 8.6-2 12.7-6v27.7h-101V589h130.3v-16.4h-10.6M2996 552.4l-11.1-4.1-32-14-3.6-1.6a156.7 156.7 0 0 0 42.4-22.9l4.4-3.3zm-1 20.2h-84.3V589h116.7v-16.4h-13V479H2998c-1.6 4.8-9.7 12.2-24.3 22.3a113 113 0 0 1-24.6 12 81.9 81.9 0 0 1-26.7 6.2l-5 18.6c4.4 3.5 16.4 9.5 36.2 18 8.3 3.7 22.2 9.1 41.5 16.4" fill="#fff" fill-rule="nonzero" transform="matrix(1.33333 0 0 -1.33333 0 337.4) scale(.1)"/><path d="M3058.7 572.6c-5.9-8.2-8.8-15-8.8-20.3 0-2.4 3-12.3 9-29.6 3.2-8.7 4.8-15.9 4.8-21.6 0-11-6.1-18.5-18.3-22.8a85.5 85.5 0 0 0-19.9-3.5l2.6 16.2c11 2.3 16.5 6.2 16.5 11.6a67 67 0 0 1-6.9 23.4 66.8 66.8 0 0 0-6.9 23.2c0 6.4 2.7 14.2 8 23.4h-19.4V589h52.1v-16.4h-12.8" fill="#fff" fill-rule="nonzero" transform="matrix(1.33333 0 0 -1.33333 0 337.4) scale(.1)"/><path d="M3098.8 572.6V479H3080v93.5h-13.7V589h45v-16.4h-12.6M3145.8 566.3a7.8 7.8 0 0 1-5.6 1.6c-7-1.2-10.6-4.7-10.6-10.5 0-3 1.2-5.7 3.5-8.3 2.3-2.5 5-3.7 8-3.7l2.5.3c5.3 1.7 8 5 8 9.8 0 4.5-2 8.1-5.8 10.8zm16.6-98.3c-23.7 20-39.8 32-48.3 36l.2 25.8c32.6-23.3 53.9-42 64-55.8v-19.2zm-20.5 60.3c-8.8 0-15.8 2.7-21 8.3-5.4 5.5-8 12.6-8 21.3a27.6 27.6 0 0 0 28.4 28.2c11 0 19-5.6 23.9-16.6 2-4.7 3.1-9.3 3.1-13.8 0-8.4-2.3-15.1-6.8-20-4.6-5-11.1-7.4-19.6-7.4M3295.9 600c-21.8 13.6-39.7 20.5-53.5 20.5-16.4 0-28.4-5.2-36-15.6-2.7-3.6-4.2-9-4.4-16h13v-16.3h-13V479h-19v93.5h-12.5V589h12.4c.4 13.3 4.8 24 13.1 32.3a57.7 57.7 0 0 0 34 15.3c1.5.1 4.3.4 8.4 1h4c11.4 0 22.7-2.5 34-7.4 6-2.9 16-8.5 30-17l-10.5-13.3" fill="#fff" fill-rule="nonzero" transform="matrix(1.33333 0 0 -1.33333 0 337.4) scale(.1)"/><path d="M3261.7 551c-3.1-2.3-7.7-5.4-14-9.3-1.6-.7-3.4-2-5.4-4-2.1-2-4-3.9-6-5.6 2-1.8 5.2-4.3 9.6-7.5 4.1-4.7 9.4-10.5 15.8-17.3zm18.7 21.6v-.6a58 58 0 0 0 24.4-7.4c12-6.5 17.9-15.3 17.9-26.5 0-6.5-2-12.2-6-16.9-4-4.7-9.2-7.8-15.6-9.3a37 37 0 0 0-16.5-.7v17.6c2.1-.2 4.1-.4 6-.4 9.3 0 14 3.4 14 10.2 0 8-8 13-24.2 15.1v-74.6h-16.6a54 54 0 0 1-8 12l-7 9.3a36.6 36.6 0 0 1-6.6 6.4 36.4 36.4 0 0 0-6.6 6.4c-.5.8-2 1.6-4.4 2.5a63 63 0 0 1-19.7 4.3l-5 18.6c4.2 3 13.5 8.6 28 16.7a839.2 839.2 0 0 0 27.2 16v1.3h-59.1V589H3331v-16.4h-50.6M3362.8 566.3a7.9 7.9 0 0 1-5.6 1.6c-7-1.2-10.6-4.7-10.6-10.5 0-3 1.2-5.7 3.5-8.3 2.3-2.5 5-3.7 7.9-3.7l2.6.3c5.3 1.7 8 5 8 9.8 0 4.5-2 8.1-5.8 10.8zm16.5-98.3c-23.7 20-39.8 32-48.3 36l.3 25.8c32.5-23.3 53.9-42 64-55.8v-19.2zm-20.4 60.3a28 28 0 0 0-21 8.3c-5.4 5.5-8 12.6-8 21.3a27.7 27.7 0 0 0 28.4 28.2c11 0 19-5.6 23.8-16.6 2.2-4.7 3.2-9.3 3.2-13.8 0-8.4-2.3-15.1-6.8-20-4.6-5-11.1-7.4-19.6-7.4M1291.4 471l34.9-11.7 13.9 11.7-34.9 12.3-13.9-12.3M1272.8 523.8c3.5-1 8.2 4.6 11.6 9.2v-21.7c0-8.2-6.5-15.4-11.6-15.4H1224v27.8h48.8zm30.2 44v21h-273.6v-21h46v-47.2h39.5s11.2 3.7 14 9.3v-18.6c0-8.2-6.3-15.4-14-15.4h-58c-3.6 0-7 1.5-7 15.4v44h-20.5v-56.4c0-4.6 3-21 17.6-21h78.8c12.2.4 21 12.9 21.6 23.4v54h-18.6c-2-8.3-.7-14-9.3-16h-23.2v28.5h67.4v-90h23.2v90h16.3v-90h76.6c5.4 0 23.2 4.6 23.2 24.2v53.3h-18.5c0-5.2-.8-13-9.3-13H1224v25.5h79M1328.6 517.6h46.4v24.7h-46.4ZM1477.2 492.8h-46.4c-7 1-11.6 9.2-11.6 18.5v24.8h58zm-76.5 96v-21h76.5v-12.5h-76.5V505c1.6-16.3 10-27.2 25.9-27.2h69.2v89.9h16.3v-90h20.9v111h-132.3M1633.3 567.8h94.8v-12.5h-27.9c-1.1-8.8-15.5-13.6-18.6 0h-48.3V502c0-5.1.8-22 15-24.1h38v18h-25.6c-5 1.5-9.2 4.6-9.2 12.3v28h25.5v-15.6h23.2V533c-1.5 5.7 24.4 5.2 25.6 0V478h20.9v89.9h14v-90h20.8v111h-148.2v-21M1585.3 551.6c-8.9 0-16.1 3.2-16.1 7.2s7.2 7.3 16.1 7.3c9 0 16.1-3.2 16.1-7.3 0-4-7.2-7.2-16-7.2zm15 31H1551v-29c2-9.4 6.9-20.9 23.8-21.8h39.5v36c-1.2 6-5.4 13.8-14 14.8M1554.3 520.9v-18.3l59.7-24.8v19.4l-59.7 23.7M2085.8 551.6c-9 0-16.2 3.2-16.2 7.2s7.3 7.3 16.2 7.3c8.9 0 16-3.2 16-7.3 0-4-7.1-7.2-16-7.2zm15 31h-49.4v-29c2-9.4 7-20.9 23.8-21.8h39.5v36c-1.1 6-5.4 13.8-14 14.8M2054.7 520.9v-18.3l59.7-24.8v19.4l-59.7 23.7M2209 492.8h-46.5c-7 1-11.6 9.2-11.6 18.5v24.8h57.7l.3-3zm18.5 62.5v12.5h38.5v21h-133.6v-21h76.5v-12.5h-76.5V505c1.7-16.3 10-27.2 25.9-27.2h69.2V533h18.6c3 0 3.9 1.6 4.6-3v-9.4c-1.1-4.6-1.5-7.7-4.6-9.3h-6.9v-18.6h13.9c4.6.6 13.1 5.7 13.9 12.4v50.2h-39.5M1920.6 492.8h-46.5c-7 1-11.6 9.2-11.6 18.5v24.8h58.1zm-76.5 96v-21h76.5v-12.5h-76.5V505c1.6-16.3 10-27.2 25.9-27.2h69.2v89.9h24.2l-8.8-17.7v-12.4h16.2c8.7-1 11.7-6.7 11.7-21.7 0-10.3-2.4-17.8-10.4-18.6h-15.2v-18.6h16.3c4.6 0 25.9-2 27.8 18.6 2.3 41.9 4.3 52.7-25.5 55.8l4.3 14.6h32.8v-90h20.9v111H1844" fill="#fff" fill-rule="nonzero" transform="matrix(1.33333 0 0 -1.33333 0 337.4) scale(.1)"/></g></svg>